<svg xmlns="http://www.w3.org/2000/svg" width="326.532" height="35.953" viewBox="0 0 326.532 35.953">
  <g id="Group_43" data-name="Group 43" transform="translate(-717 -4689)">
    <text id="Site_Powered_by:" data-name="Site Powered by:" transform="translate(717 4694)" font-size="15" font-family="Helvetica"><tspan x="-56.697" y="12">Site Powered by:</tspan></text>
    <g id="Group_41" data-name="Group 41" transform="translate(480.843 4248.278)">
      <g id="Group_36" data-name="Group 36" transform="translate(360.157 440.722)">
        <path id="Path_15" data-name="Path 15" d="M401.867,461.813c-.034-.022-.024-.058-.026-.089-.011-.213,0-.427-.034-.641-.043-.3-.066-.6-.114-.9-.066-.411-.151-.819-.25-1.224a17.47,17.47,0,0,0-1.653-4.216,20.394,20.394,0,0,0-1.707-2.618c-.46-.6-.952-1.179-1.467-1.734-.366-.394-.75-.772-1.141-1.142-.079-.075-.163-.145-.242-.215-.235.138-.463.271-.689.406-.179.107-.358.214-.535.324-.04.025-.092.041-.107.1.091.084.185.168.275.256.481.467.944.951,1.377,1.462a17.5,17.5,0,0,1,1.606,2.209,14.252,14.252,0,0,1,1.79,4.346c.077.348.142.7.185,1.052.015.12.029.239.041.359.018.2.041.393.048.59a10.25,10.25,0,0,1-.021,1.366c-.017.174-.023.351-.047.524-.048.342-.106.682-.183,1.019a9.812,9.812,0,0,1-1.232,3,10.626,10.626,0,0,1-2.573,2.819,12.87,12.87,0,0,1-3.61,1.938,15.133,15.133,0,0,1-2.236.6,15.829,15.829,0,0,1-1.577.227c-.142.012-.285.019-.426.037-.273.034-.548.04-.821.047-.482.012-.965.016-1.448-.014-.328-.021-.657-.038-.984-.068-.371-.034-.741-.08-1.11-.132q-.619-.087-1.231-.214a22.581,22.581,0,0,1-2.211-.575,22.909,22.909,0,0,1-4.2-1.8,21.57,21.57,0,0,1-4.058-2.884,19.168,19.168,0,0,1-1.461-1.472,18.38,18.38,0,0,1-1.443-1.838,15.5,15.5,0,0,1-1.813-3.5,12.684,12.684,0,0,1-.5-1.738c-.072-.344-.126-.689-.172-1.038-.042-.321-.065-.644-.078-.967a9.156,9.156,0,0,1,.013-1c.023-.329.055-.655.1-.981a9.783,9.783,0,0,1,.207-1.014,9.919,9.919,0,0,1,1.029-2.5,10.438,10.438,0,0,1,2.1-2.56,11.97,11.97,0,0,1,2.482-1.695,14.272,14.272,0,0,1,2.852-1.093,17.594,17.594,0,0,1,2.061-.415c.092-.013.184-.021.283-.033.034.044.068.087.1.131q.43.594.859,1.187c.025.034.041.079.1.092l5.586-3.048.143-.081a.029.029,0,0,0,.011-.012s0-.008,0-.017c-.035-.01-.071-.022-.109-.029q-.889-.166-1.777-.331c-.507-.094-1.014-.184-1.52-.278-.555-.1-1.109-.211-1.663-.314-.684-.127-1.369-.25-2.053-.377-.614-.114-1.227-.233-1.841-.347-.1-.019-.206-.028-.308-.042-.006.051.033.079.058.113q.38.528.762,1.055c.048.066.094.133.14.2a.119.119,0,0,1-.108.048c-.131.013-.262.021-.393.035-.316.035-.633.065-.947.11a20.819,20.819,0,0,0-3.017.66,17.966,17.966,0,0,0-3.313,1.358,15.564,15.564,0,0,0-2.824,1.927,13.925,13.925,0,0,0-1.129,1.083,13.208,13.208,0,0,0-2.294,3.378,12.66,12.66,0,0,0-.893,2.593q-.138.609-.215,1.23a11.679,11.679,0,0,0-.1,1.312c0,.055,0,.11-.01.164a2.865,2.865,0,0,0,0,.442c.013.2.012.4.025.592s.032.4.052.606.045.392.07.588c.049.4.125.791.213,1.181a17.135,17.135,0,0,0,.939,2.908,19.378,19.378,0,0,0,1.9,3.456,22.009,22.009,0,0,0,1.545,1.989q.514.591,1.067,1.144a25.09,25.09,0,0,0,2.859,2.455,27.111,27.111,0,0,0,4.37,2.622,27.83,27.83,0,0,0,6.455,2.17c.467.1.936.181,1.409.245.282.038.564.081.847.118.147.019.294.03.442.044l.573.055.049,0c.329.012.657.047.987.046.047,0,.1-.013.141.026h1.45a.305.305,0,0,1,.075-.023c.11-.005.22,0,.329-.01.361-.023.723-.039,1.083-.075q.7-.069,1.4-.18a20.3,20.3,0,0,0,2.359-.515,18.078,18.078,0,0,0,3.423-1.346,15.734,15.734,0,0,0,2.974-1.994,14.2,14.2,0,0,0,1.258-1.208,13.044,13.044,0,0,0,2.085-3.026,12.572,12.572,0,0,0,1.034-2.958c.072-.338.135-.677.182-1.019a7.356,7.356,0,0,0,.081-1.032c0-.042-.012-.089.026-.124Z" transform="translate(-360.157 -440.722)" fill="#0052a2"/>
        <path id="Path_16" data-name="Path 16" d="M426.477,468.968c-.3-.038-.6-.068-.9-.08a16.586,16.586,0,0,0-1.991.016q-.476.039-.948.1a12.245,12.245,0,0,0-1.276.239,11,11,0,0,0-3.076,1.226,8.9,8.9,0,0,0-2.177,1.794,7.892,7.892,0,0,0-1.658,3.02,7.591,7.591,0,0,0-.3,1.7,8.786,8.786,0,0,0,.049,1.66c.04.3.086.6.15.891a10.958,10.958,0,0,0,.831,2.387,14.086,14.086,0,0,0,2.5,3.593,16.077,16.077,0,0,0,1.344,1.263,17.885,17.885,0,0,0,3.284,2.185,18.52,18.52,0,0,0,3.466,1.376,17.1,17.1,0,0,0,1.729.4c.367.065.734.125,1.106.162.12.012.24.025.36.036.2.018.393.042.59.05.285.013.571.014.785.018a15.313,15.313,0,0,0,1.55-.069c.393-.042.783-.1,1.172-.167a11.827,11.827,0,0,0,2.058-.57,10.138,10.138,0,0,0,2.706-1.51,8.443,8.443,0,0,0,1.462-1.466,7.784,7.784,0,0,0,1.429-2.992,7.555,7.555,0,0,0,.2-1.348,9.011,9.011,0,0,0-.084-1.9,10.915,10.915,0,0,0-.221-1.078,11.484,11.484,0,0,0-1.184-2.83,14.5,14.5,0,0,0-1.992-2.655,16.219,16.219,0,0,0-1.4-1.321,17.86,17.86,0,0,0-3.182-2.131,18.561,18.561,0,0,0-4.107-1.576c-.5-.128-1.014-.234-1.53-.312C426.977,469.033,426.727,469,426.477,468.968Zm1.255,15.666a2.535,2.535,0,0,1-.444,1,3.3,3.3,0,0,1-.475.523,4.6,4.6,0,0,1-1.085.739,5.951,5.951,0,0,1-1.4.461,4.826,4.826,0,0,1-1.013.107,3.994,3.994,0,0,1-1.43-.271,5.673,5.673,0,0,1-1.478-.852,4.654,4.654,0,0,1-1.052-1.191.24.24,0,0,1-.056-.117.179.179,0,0,1,.038-.029l1.271-.514a.907.907,0,0,1,.065.077,4.015,4.015,0,0,0,2.038,1.57,2.975,2.975,0,0,0,1.279.167,3.253,3.253,0,0,0,2.173-1.077,1.844,1.844,0,0,0,.446-.956,2.57,2.57,0,0,0-.256-1.55,3.539,3.539,0,0,0-2.04-1.811,2.982,2.982,0,0,0-.984-.171,4.974,4.974,0,0,0-1.66.291c-.234.079-.466.163-.7.244-.046.016-.094.031-.139.045-.079-.093-.448-.669-.537-.838a.572.572,0,0,1,.07-.035c.291-.1.583-.193.872-.3a2.7,2.7,0,0,0,.754-.4,1.207,1.207,0,0,0,.481-.761,1.331,1.331,0,0,0-.11-.8,2.008,2.008,0,0,0-.651-.793,2.989,2.989,0,0,0-1.127-.52,2.824,2.824,0,0,0-.981-.033,2.346,2.346,0,0,0-.839.273,2.053,2.053,0,0,0-.287.192,1.075,1.075,0,0,0-.408.8,1.631,1.631,0,0,0,.2.935c.019.034.036.068.055.1a.171.171,0,0,1-.04.028l-1.12.342c-.024-.036-.048-.065-.067-.1a2.39,2.39,0,0,1-.318-1.1,2.013,2.013,0,0,1,.881-1.677,3.792,3.792,0,0,1,1.008-.476,3.988,3.988,0,0,1,.626-.133,5.116,5.116,0,0,1,.936-.042,3.672,3.672,0,0,1,1.325.293,4.777,4.777,0,0,1,1.056.6,3.065,3.065,0,0,1,.936,1.13,1.63,1.63,0,0,1,.166.681,1.545,1.545,0,0,1-.2.77c-.042.077-.088.151-.144.245.111.015.2.028.294.039a4.87,4.87,0,0,1,2.07.7,4.63,4.63,0,0,1,1.169,1.077,5.124,5.124,0,0,1,.422.628,3.685,3.685,0,0,1,.414,2.48Zm3.1-11.373,1.131-.291,1.864-.475.173-.045a4.135,4.135,0,0,1,.509.629c-.288.091-.58.161-.868.243s-.593.16-.889.241-.58.161-.882.244c.054.129,1.073,1.927,1.257,2.219a.274.274,0,0,0,.041.039.6.6,0,0,0,.03-.058,1.322,1.322,0,0,1,.777-.76,2.623,2.623,0,0,1,.766-.178c.087-.007.175-.018.262-.019a3.47,3.47,0,0,1,1.36.279,5.733,5.733,0,0,1,2.489,2.059,3.555,3.555,0,0,1,.555,1.448,1.815,1.815,0,0,1-.043.8,1.673,1.673,0,0,1-.533.776,1.935,1.935,0,0,1-.88.423,3,3,0,0,1-.932.062,3.4,3.4,0,0,1-.9-.2,5.713,5.713,0,0,1-1.829-1.086,3.906,3.906,0,0,1-.432-.464,1.888,1.888,0,0,1,.372-.169c.119-.053.243-.1.359-.142.019.009.032.011.038.019a3.218,3.218,0,0,0,.808.7,4.055,4.055,0,0,0,1.11.489,2.429,2.429,0,0,0,.635.08,1.832,1.832,0,0,0,.629-.11,1.272,1.272,0,0,0,.69-.582,1.122,1.122,0,0,0,.107-.735,2.99,2.99,0,0,0-.589-1.342,4.09,4.09,0,0,0-1.55-1.272,2.491,2.491,0,0,0-.7-.227,2.076,2.076,0,0,0-.589-.027,4.023,4.023,0,0,0-.469.079,1.867,1.867,0,0,0-.382.151,1.1,1.1,0,0,0-.578.742,1.545,1.545,0,0,0-.044.391.459.459,0,0,1-.011.166c-.256.018-.5-.041-.758-.039-.024-.036-.048-.066-.066-.1l-.822-1.483-1.108-2-.222-.4C430.747,473.275,430.792,473.272,430.832,473.262Zm-2.984.939q0,1.2,0,2.405c0,.313,0,.626.007.939,0,.031.006.061.011.106l.081-.045.326-.192a2.8,2.8,0,0,1,.91-.324,3.954,3.954,0,0,1,.949-.071,3.763,3.763,0,0,1,.888.156,5.1,5.1,0,0,1,1.2.571,5.166,5.166,0,0,1,1.032.84,4.775,4.775,0,0,1,.973,1.456,3.261,3.261,0,0,1,.228.905,2.417,2.417,0,0,1-.039.751,1.974,1.974,0,0,1-.467.912,3.361,3.361,0,0,1-.719.6,3.94,3.94,0,0,1-1.768.509c-.065,0-.131.02-.2.017a4.057,4.057,0,0,1-1.349-.262,5.863,5.863,0,0,1-1.763-1.073,4.294,4.294,0,0,1-1.126-1.563,4.429,4.429,0,0,1-.26-.933,7.837,7.837,0,0,1-.11-1.425c.006-.489.01-.977.018-1.466,0-.241.012-.482.029-.723.034-.488.028-.976.032-1.464,0-.087.012-.174.018-.262a1.194,1.194,0,0,1,.015-.262l1.057-.269A.306.306,0,0,1,427.848,474.2Z" transform="translate(-404.234 -463.703)" fill="#63a02a"/>
        <path id="Path_17" data-name="Path 17" d="M524.772,474.249a3.06,3.06,0,0,0,1.15.746,2.07,2.07,0,0,0,.738.145c.044,0,.088,0,.132,0a.984.984,0,0,0,.426-.114.6.6,0,0,0,.339-.543,1.093,1.093,0,0,0-.152-.565,2.251,2.251,0,0,0-.551-.649,2.946,2.946,0,0,0-1.492-.679,1.572,1.572,0,0,0-.506.02.791.791,0,0,0-.26.1.612.612,0,0,0-.314.544,1.02,1.02,0,0,0,.1.445A1.95,1.95,0,0,0,524.772,474.249Zm.193-.886a.405.405,0,0,1,.308-.268.92.92,0,0,1,.488.014,1.779,1.779,0,0,1,.916.553.936.936,0,0,1,.217.365.751.751,0,0,1,.03.177.363.363,0,0,1-.238.36.634.634,0,0,1-.269.052,1.494,1.494,0,0,1-.637-.156,1.757,1.757,0,0,1-.567-.417,1,1,0,0,1-.249-.439A.449.449,0,0,1,524.965,473.362Z" transform="translate(-494.174 -466.733)" fill="#63a02a"/>
        <path id="Path_18" data-name="Path 18" d="M490.373,521.747a4.637,4.637,0,0,0,1.17.695,2.88,2.88,0,0,0,2.118.063,1.8,1.8,0,0,0,.83-.6,1.277,1.277,0,0,0,.28-.725,2.438,2.438,0,0,0-.118-.94,3.51,3.51,0,0,0-1.013-1.495,4.382,4.382,0,0,0-1.129-.729,2.748,2.748,0,0,0-1.22-.258,2.932,2.932,0,0,0-.416.033,2.22,2.22,0,0,0-.995.4,1.493,1.493,0,0,0-.646,1.1,2.348,2.348,0,0,0,.168,1.159A3.32,3.32,0,0,0,490.373,521.747Z" transform="translate(-465.545 -503.629)" fill="#63a02a"/>
      </g>
      <g id="Group_37" data-name="Group 37" transform="translate(463.912 446.702)">
        <path id="Path_19" data-name="Path 19" d="M925.735,489.071V474.876h2.056l4.919,12.414,4.958-12.414h2.056v14.195H938.4v-12.66l-5.086,12.66h-1.161l-5.076-12.739v12.739Z" transform="translate(-925.735 -474.591)" fill="#0f74af"/>
        <path id="Path_20" data-name="Path 20" d="M1007.274,489.071H1005.9l5.489-14.195h1.653l5.519,14.195h-1.485l-1.692-4.446h-6.414Zm4.918-12.946-2.744,7.25h5.479Z" transform="translate(-991.191 -474.591)" fill="#0f74af"/>
        <path id="Path_21" data-name="Path 21" d="M1083,482.254h1.456a2.837,2.837,0,0,0,2.194-.94,3.14,3.14,0,0,0-.069-4.146,3.434,3.434,0,0,0-2.567-.964h-2.9v12.867h-1.328V474.876h4.466a4.636,4.636,0,0,1,3.324,1.274,4.423,4.423,0,0,1,1.269,3.2,4.77,4.77,0,0,1-.836,2.681,3.34,3.34,0,0,1-2.626,1.471l3.463,5.568h-1.653Z" transform="translate(-1051.523 -474.591)" fill="#0f74af"/>
        <path id="Path_22" data-name="Path 22" d="M1142.826,482.815l6.65-7.939h1.613l-5.725,6.847,5.568,7.348h-1.653l-4.84-6.256-1.613,1.938v4.318H1141.5V474.876h1.328Z" transform="translate(-1101.916 -474.591)" fill="#0f74af"/>
        <path id="Path_23" data-name="Path 23" d="M1207.281,474.876V476.2h-6.011v5.076h6.011v1.338h-6.011v5.155h6.011v1.3h-7.338V474.876Z" transform="translate(-1149.639 -474.591)" fill="#0f74af"/>
        <path id="Path_24" data-name="Path 24" d="M1255.088,476.2h-2.862v12.867H1250.9V476.2h-2.863v-1.328h7.053Z" transform="translate(-1188.909 -474.591)" fill="#0f74af"/>
        <path id="Path_25" data-name="Path 25" d="M1295.689,489.071h-1.328V474.876h1.328Z" transform="translate(-1226.737 -474.591)" fill="#0f74af"/>
        <path id="Path_26" data-name="Path 26" d="M1325.56,487.408V474.876h1.25v14.195h-1.652l-7.781-12.5v12.5h-1.249V474.876h1.652Z" transform="translate(-1244.51 -474.591)" fill="#0f74af"/>
        <path id="Path_27" data-name="Path 27" d="M1386.282,480.62a6.481,6.481,0,0,0,1.544,4.146,5.624,5.624,0,0,0,4.378,1.972,5.734,5.734,0,0,0,3.512-1.279,5.858,5.858,0,0,0,2.085-3.266h-7.25v-1.21h8.863a7.248,7.248,0,0,1-2.292,5.1,7.43,7.43,0,0,1-5.037,1.968,6.885,6.885,0,0,1-5.41-2.45,7.866,7.866,0,0,1-1.81-4.978,7.429,7.429,0,0,1,1.913-4.978,7.3,7.3,0,0,1,5.543-2.322,6.887,6.887,0,0,1,6.325,3.836h-1.692a7.241,7.241,0,0,0-1.81-1.707,5.3,5.3,0,0,0-2.9-.792,5.805,5.805,0,0,0-4.358,1.908A6.128,6.128,0,0,0,1386.282,480.62Z" transform="translate(-1300.638 -473.321)" fill="#0f74af"/>
      </g>
      <g id="Group_38" data-name="Group 38" transform="translate(406.168 446.67)">
        <path id="Path_28" data-name="Path 28" d="M618.039,476.038h-2.871v12.9h-1.332v-12.9h-2.87v-1.332h7.073Z" transform="translate(-610.966 -474.42)" fill="#63a02a"/>
        <path id="Path_29" data-name="Path 29" d="M664.21,473.147a6.952,6.952,0,0,1,5.311,2.353,7.715,7.715,0,0,1,1.919,5.045,7.555,7.555,0,0,1-1.963,5.031,7.156,7.156,0,0,1-5.386,2.338,7,7,0,0,1-5.3-2.343,7.665,7.665,0,0,1-1.938-5.065,7.521,7.521,0,0,1,1.982-5.09A7.188,7.188,0,0,1,664.21,473.147Zm-5.938,7.4a6.178,6.178,0,0,0,1.667,4.241,5.814,5.814,0,0,0,4.271,1.815,5.554,5.554,0,0,0,4.212-1.9,6.436,6.436,0,0,0,1.608-4.236,6.067,6.067,0,0,0-1.707-4.158,5.783,5.783,0,0,0-4.192-1.82,5.724,5.724,0,0,0-4.173,1.815A6.2,6.2,0,0,0,658.272,480.545Z" transform="translate(-648.434 -473.147)" fill="#63a02a"/>
        <path id="Path_30" data-name="Path 30" d="M750.833,476.038h-2.87v12.9h-1.331v-12.9h-2.871v-1.332h7.073Z" transform="translate(-719.4 -474.42)" fill="#63a02a"/>
        <path id="Path_31" data-name="Path 31" d="M788.027,488.94h-1.381l5.5-14.234h1.657l5.534,14.234h-1.49l-1.7-4.458h-6.431Zm4.932-12.981-2.752,7.27H795.7Z" transform="translate(-754.417 -474.42)" fill="#63a02a"/>
        <path id="Path_32" data-name="Path 32" d="M869.307,487.637h5.05v1.3h-6.382V474.706h1.332Z" transform="translate(-820.827 -474.42)" fill="#63a02a"/>
      </g>
      <g id="Group_40" data-name="Group 40" transform="translate(414.99 465.722)">
        <g id="Group_39" data-name="Group 39" transform="translate(0 0)">
          <path id="Path_33" data-name="Path 33" d="M659.056,585.225v-7.411h1.834a1.93,1.93,0,0,1,1.479.642,2.042,2.042,0,0,1,.519,1.335,1.871,1.871,0,0,1-.167.827,1.393,1.393,0,0,1-.593.606,1.479,1.479,0,0,1,.855.662,2.05,2.05,0,0,1,.3,1.063,2.353,2.353,0,0,1-.565,1.587,2.183,2.183,0,0,1-1.685.688Zm.694-4.211h.822a1.732,1.732,0,0,0,1.189-.35,1.2,1.2,0,0,0,.368-.935,1.128,1.128,0,0,0-.37-.878,1.6,1.6,0,0,0-1.079-.344h-.93Zm0,3.534h1.264a1.559,1.559,0,0,0,1.171-.431,1.423,1.423,0,0,0,.365-1,1.347,1.347,0,0,0-.385-.994,1.742,1.742,0,0,0-1.253-.414H659.75Z" transform="translate(-659.056 -577.665)" fill="#707171"/>
          <path id="Path_34" data-name="Path 34" d="M692.814,590.037h-5.049a2.158,2.158,0,0,0,.552,1.382,2.035,2.035,0,0,0,1.548.7,2.053,2.053,0,0,0,1.957-1.243h.8a3.033,3.033,0,0,1-.935,1.286,2.773,2.773,0,0,1-1.736.614,2.908,2.908,0,0,1-2.08-.871,3.044,3.044,0,0,1-.848-2.144,2.952,2.952,0,0,1,.737-1.959,2.9,2.9,0,0,1,2.232-.922,2.656,2.656,0,0,1,2.049.906A3.381,3.381,0,0,1,692.814,590.037Zm-.781-.591a2.573,2.573,0,0,0-.606-1.268,1.981,1.981,0,0,0-1.521-.642,2.048,2.048,0,0,0-1.495.585,2.265,2.265,0,0,0-.627,1.325Z" transform="translate(-681.894 -585.071)" fill="#707171"/>
          <path id="Path_35" data-name="Path 35" d="M721.27,587.807l1.746,4.582,1.828-4.582h.822l-3.03,7.406h-.755l.735-1.808-2.132-5.6Z" transform="translate(-709.215 -585.825)" fill="#707171"/>
          <path id="Path_36" data-name="Path 36" d="M753.144,586.884a2.742,2.742,0,0,1,2.1.974,3.065,3.065,0,0,1,.76,1.949,3.1,3.1,0,0,1-.768,2.016,2.825,2.825,0,0,1-2.16.958,2.7,2.7,0,0,1-2.157-1.022,3.2,3.2,0,0,1-.7-1.952,3.02,3.02,0,0,1,.786-1.972A2.841,2.841,0,0,1,753.144,586.884Zm-2.187,2.922a2.534,2.534,0,0,0,.547,1.585,1.948,1.948,0,0,0,1.554.732,2.13,2.13,0,0,0,1.615-.694,2.354,2.354,0,0,0,.593-1.582,2.42,2.42,0,0,0-.565-1.579,2.114,2.114,0,0,0-3.166,0A2.372,2.372,0,0,0,750.957,589.806Z" transform="translate(-733.493 -585.071)" fill="#707171"/>
          <path id="Path_37" data-name="Path 37" d="M792.309,592.815h-.693V589.4a1.77,1.77,0,0,0-.349-1.107,1.491,1.491,0,0,0-1.228-.511,1.612,1.612,0,0,0-1.336.568,2.011,2.011,0,0,0-.39,1.261v3.2h-.693v-5.536h.693v.631a1.779,1.779,0,0,1,.756-.565,2.726,2.726,0,0,1,1.052-.235,2.133,2.133,0,0,1,1.6.646,2.284,2.284,0,0,1,.588,1.582Z" transform="translate(-764.034 -585.255)" fill="#707171"/>
          <path id="Path_38" data-name="Path 38" d="M824.08,577.814h.694v7.411H824.1v-.868a2.9,2.9,0,0,1-.886.714,2.707,2.707,0,0,1-1.235.3,2.9,2.9,0,0,1-2.949-2.974,3.053,3.053,0,0,1,.755-1.988,2.7,2.7,0,0,1,2.065-.935,2.979,2.979,0,0,1,1.348.285,2.618,2.618,0,0,1,.9.742Zm.021,4.627a2.444,2.444,0,0,0-.619-1.582,2.06,2.06,0,0,0-1.548-.73,2.1,2.1,0,0,0-1.554.7,2.32,2.32,0,0,0-.609,1.548,2.509,2.509,0,0,0,.581,1.6,2.008,2.008,0,0,0,1.562.735,2.107,2.107,0,0,0,1.582-.712A2.373,2.373,0,0,0,824.1,582.441Z" transform="translate(-789.684 -577.665)" fill="#707171"/>
          <path id="Path_39" data-name="Path 39" d="M879.444,577.814v.693h-2.969v2.65h2.969v.719h-2.969v3.349h-.693v-7.411Z" transform="translate(-836.024 -577.665)" fill="#707171"/>
          <path id="Path_40" data-name="Path 40" d="M903.888,591.295v-3.488h.693v3.426a1.746,1.746,0,0,0,.365,1.138,1.532,1.532,0,0,0,1.233.506,1.582,1.582,0,0,0,1.325-.581,2.094,2.094,0,0,0,.38-1.274v-3.215h.693v5.578h-.693v-.637a1.686,1.686,0,0,1-.648.565,2.53,2.53,0,0,1-2.735-.436A2.227,2.227,0,0,1,903.888,591.295Z" transform="translate(-858.974 -585.825)" fill="#707171"/>
          <path id="Path_41" data-name="Path 41" d="M936.926,577.814h.693v7.411h-.693Z" transform="translate(-885.951 -577.665)" fill="#707171"/>
          <path id="Path_42" data-name="Path 42" d="M948.15,577.814h.693v7.411h-.693Z" transform="translate(-895.116 -577.665)" fill="#707171"/>
          <path id="Path_43" data-name="Path 43" d="M979.091,577.7a2.959,2.959,0,0,0-2.247,1,3.233,3.233,0,0,0-.824,2.108,3.369,3.369,0,0,0,.793,2.173,2.978,2.978,0,0,0,4.718-.257h.863a3.739,3.739,0,0,1-1.319,1.413,3.794,3.794,0,0,1-1.983.55,3.69,3.69,0,0,1-2.812-1.223,4,4,0,0,1-1-2.655,3.945,3.945,0,0,1,.981-2.568A3.672,3.672,0,0,1,979.091,577a3.734,3.734,0,0,1,2.021.573,3.886,3.886,0,0,1,1.343,1.472h-.884a3.516,3.516,0,0,0-.917-.909A2.8,2.8,0,0,0,979.091,577.7Z" transform="translate(-917.27 -577)" fill="#707171"/>
          <path id="Path_44" data-name="Path 44" d="M1021.521,577.814v1.135h-.693v-1.135Zm-.693,1.833h.693v5.578h-.693Z" transform="translate(-954.461 -577.665)" fill="#707171"/>
          <path id="Path_45" data-name="Path 45" d="M1034.012,588.114a1.218,1.218,0,0,0-1.263,1.238v3.667h-.693v-5.5h.652v.565a1.916,1.916,0,0,1,.581-.49,2.2,2.2,0,0,1,.723-.24Z" transform="translate(-963.629 -585.459)" fill="#707171"/>
          <path id="Path_46" data-name="Path 46" d="M1051.379,590.88a2.847,2.847,0,0,1-4.805.953,3.1,3.1,0,0,1-.772-2.047,2.936,2.936,0,0,1,.817-1.988,2.872,2.872,0,0,1,2.111-.914,2.768,2.768,0,0,1,1.649.529,2.9,2.9,0,0,1,1,1.32h-.781a2.551,2.551,0,0,0-.745-.835,2.137,2.137,0,0,0-2.761.38,2.4,2.4,0,0,0-.552,1.528,2.554,2.554,0,0,0,.542,1.559,1.975,1.975,0,0,0,1.579.758,2.1,2.1,0,0,0,1.228-.378,1.94,1.94,0,0,0,.688-.865Z" transform="translate(-974.853 -585.071)" fill="#707171"/>
          <path id="Path_47" data-name="Path 47" d="M1083.207,577.814h.693v7.411h-.693Z" transform="translate(-1005.397 -577.665)" fill="#707171"/>
          <path id="Path_48" data-name="Path 48" d="M1098.6,590.037h-5.048a2.156,2.156,0,0,0,.551,1.382,2.036,2.036,0,0,0,1.549.7,2.053,2.053,0,0,0,1.957-1.243h.8a3.031,3.031,0,0,1-.934,1.286,2.777,2.777,0,0,1-1.737.614,2.908,2.908,0,0,1-2.08-.871,3.046,3.046,0,0,1-.847-2.144,2.952,2.952,0,0,1,.737-1.959,2.9,2.9,0,0,1,2.232-.922,2.655,2.655,0,0,1,2.049.906A3.379,3.379,0,0,1,1098.6,590.037Zm-.78-.591a2.574,2.574,0,0,0-.607-1.268,1.98,1.98,0,0,0-1.52-.642,2.049,2.049,0,0,0-1.495.585,2.265,2.265,0,0,0-.626,1.325Z" transform="translate(-1013.237 -585.071)" fill="#707171"/>
          <path id="Path_49" data-name="Path 49" d="M1148.411,585.225v-7.411h1.074l2.568,6.481,2.589-6.481h1.073v7.411h-.694v-6.61l-2.655,6.61h-.606l-2.65-6.651v6.651Z" transform="translate(-1058.639 -577.665)" fill="#707171"/>
          <path id="Path_50" data-name="Path 50" d="M1197.226,586.884a2.8,2.8,0,0,1,1.189.285,2.624,2.624,0,0,1,.952.742l-.02-.858h.694v5.578h-.694l.02-.889a2.725,2.725,0,0,1-.9.737,3.032,3.032,0,0,1-1.348.3,2.662,2.662,0,0,1-2.137-1.033,3.171,3.171,0,0,1-.683-1.88,3.114,3.114,0,0,1,.786-2.044A2.809,2.809,0,0,1,1197.226,586.884Zm0,.673a2.062,2.062,0,0,0-1.633.76,2.386,2.386,0,0,0-.01,3.048,2.028,2.028,0,0,0,1.618.758,2.052,2.052,0,0,0,1.582-.76,2.455,2.455,0,0,0,.585-1.536,2.43,2.43,0,0,0-.575-1.531A2.016,2.016,0,0,0,1197.226,587.557Z" transform="translate(-1096.108 -585.071)" fill="#707171"/>
          <path id="Path_51" data-name="Path 51" d="M1235.034,588.114a1.218,1.218,0,0,0-1.263,1.238v3.667h-.693v-5.5h.652v.565a1.915,1.915,0,0,1,.58-.49,2.207,2.207,0,0,1,.724-.24Z" transform="translate(-1127.774 -585.459)" fill="#707171"/>
          <path id="Path_52" data-name="Path 52" d="M1248.446,577.814h.693v4.438l2.059-2.6h.8l-2.019,2.584,2.461,2.994h-.884l-2.419-2.928v2.928h-.693Z" transform="translate(-1140.323 -577.665)" fill="#707171"/>
          <path id="Path_53" data-name="Path 53" d="M1277.386,590.037h-5.049a2.153,2.153,0,0,0,.552,1.382,2.034,2.034,0,0,0,1.549.7,2.053,2.053,0,0,0,1.957-1.243h.8a3.036,3.036,0,0,1-.936,1.286,2.774,2.774,0,0,1-1.736.614,2.906,2.906,0,0,1-2.08-.871,3.041,3.041,0,0,1-.848-2.144,2.954,2.954,0,0,1,.737-1.959,2.9,2.9,0,0,1,2.232-.922,2.656,2.656,0,0,1,2.049.906A3.381,3.381,0,0,1,1277.386,590.037Zm-.781-.591a2.575,2.575,0,0,0-.606-1.268,1.979,1.979,0,0,0-1.52-.642,2.046,2.046,0,0,0-1.494.585,2.262,2.262,0,0,0-.627,1.325Z" transform="translate(-1159.227 -585.071)" fill="#707171"/>
          <path id="Path_54" data-name="Path 54" d="M1306.967,585.225v-4.864h-1.074v-.714h1.074v-1.833h.693v1.833h1.074v.714h-1.074v4.864Z" transform="translate(-1187.231 -577.665)" fill="#707171"/>
          <path id="Path_55" data-name="Path 55" d="M1326.437,577.814v1.135h-.694v-1.135Zm-.694,1.833h.694v5.578h-.694Z" transform="translate(-1203.439 -577.665)" fill="#707171"/>
          <path id="Path_56" data-name="Path 56" d="M1341.661,592.815h-.694V589.4a1.757,1.757,0,0,0-.349-1.107,1.491,1.491,0,0,0-1.227-.511,1.611,1.611,0,0,0-1.335.568,2.012,2.012,0,0,0-.391,1.261v3.2h-.693v-5.536h.693v.631a1.78,1.78,0,0,1,.755-.565,2.733,2.733,0,0,1,1.053-.235,2.13,2.13,0,0,1,1.6.646,2.281,2.281,0,0,1,.588,1.582Z" transform="translate(-1212.609 -585.255)" fill="#707171"/>
          <path id="Path_57" data-name="Path 57" d="M1374.064,587.053v4.941a3.053,3.053,0,0,1-.66,1.931,2.625,2.625,0,0,1-2.093.915,2.911,2.911,0,0,1-1.659-.493,1.955,1.955,0,0,1-.827-1.212h.8a1.366,1.366,0,0,0,.542.716,1.917,1.917,0,0,0,1.076.316,2.016,2.016,0,0,0,1.639-.747,2.325,2.325,0,0,0,.488-1.4v-.354a3.1,3.1,0,0,1-.812.76,2.491,2.491,0,0,1-1.315.36,2.743,2.743,0,0,1-2.124-.95,3.1,3.1,0,0,1-.737-2,3.03,3.03,0,0,1,.755-2.023,2.858,2.858,0,0,1,2.193-.919,2.525,2.525,0,0,1,1.21.326,2.259,2.259,0,0,1,.83.768v-.924Zm-4.941,2.753a2.428,2.428,0,0,0,.611,1.633,2,2,0,0,0,3.041-.031,2.43,2.43,0,0,0,.6-1.582,2.5,2.5,0,0,0-.558-1.515,1.994,1.994,0,0,0-3.14-.02A2.465,2.465,0,0,0,1369.124,589.806Z" transform="translate(-1238.258 -585.071)" fill="#707171"/>
        </g>
      </g>
    </g>
  </g>
</svg>
