<svg xmlns="http://www.w3.org/2000/svg" width="131" height="100" viewBox="0 0 131 100">
  <g id="Group_207" data-name="Group 207" transform="translate(-322 -723)">
    <g id="Ellipse_6" data-name="Ellipse 6" transform="translate(322 723)" fill="none" stroke="#6a9575" stroke-width="3">
      <ellipse cx="50.5" cy="50" rx="50.5" ry="50" stroke="none"/>
      <ellipse cx="50.5" cy="50" rx="49" ry="48.5" fill="none"/>
    </g>
    <g id="Group_10" data-name="Group 10" transform="translate(339.698 752.96)">
      <path id="Path_7" data-name="Path 7" d="M-616.011,374.536c-3.727-1.574-7.538-2.911-10.877-5.162-.058-.488-.1-.871-.151-1.269a2.4,2.4,0,0,0-.53-.116c-2.284.067-4.569.226-6.851.19-1.349-.021-2.689-.458-4.04-.5a29.332,29.332,0,0,1-5.673-1.047,39.373,39.373,0,0,1-12.16-4.856l-4.053,1.249c.655,1.749,2.219,2.855,3.084,4.53l-1.443-.252c-.581.839.355,1.291.3,1.947-1.425-.631-1.425-.631-2.542-.384l.3,1c-.182.048-.36.161-.484.117-.48-.17-.928-.44-1.416-.571a3.535,3.535,0,0,0-1.04.055c-.05.351-.086.621-.127.89-.031.209-.068.416-.131.8a11.722,11.722,0,0,1-2.38-4.47c-.42-1.814-1.031-3.584-1.546-5.377a5.345,5.345,0,0,1-.115-.778c.759-1.928,3-2.143,4.069-3.777-1.053-1.516-2.083-3.076-3.2-4.573a4.375,4.375,0,0,1-.939-2.685,12.379,12.379,0,0,1,.763-4.854c.642-1.572,1.239-3.164,1.833-4.755a9,9,0,0,0,.287-1.1l1.383-1.706,5.025-2.951c.86-.287,1.875-.266,2.37-1.22a10.2,10.2,0,0,0,3.676-.89,11.433,11.433,0,0,1,2.8-.527,7.632,7.632,0,0,1,2.114-.129l1.081-.57h2.172l.984-.725,1.782.377,1.306-.706h2.084l.985-.666,1.032.366,1.109-.671c.113-.016.226-.036.34-.047l6.336-.613c.056-.005.109-.041.164-.042,2.906-.058,5.794-.616,8.706-.358a12.331,12.331,0,0,0,2.673.021c.6-.075,1.234.105,1.845.082,1.36-.035,2.724-.134,4.08-.076a5.02,5.02,0,0,0,1.969.059c.579-.182,1.314.2,1.981.209a42.923,42.923,0,0,1,6.753.65,14.341,14.341,0,0,0,4.05.156,10.735,10.735,0,0,1,2.489.406,5.109,5.109,0,0,1-1.01.51c-2.431.526-4.867,1.024-7.3,1.53-3.1.643-6.2,1.3-9.308,1.925q-4.578.927-9.165,1.812c-2.889.563-5.782,1.108-8.673,1.663q-2.923.561-5.843,1.128c-2.165.422-4.335.821-6.491,1.285a25.559,25.559,0,0,0-4.549,1.377,6.3,6.3,0,0,0,1.977-.186,2,2,0,0,1,2.349.486,6.506,6.506,0,0,1,3.347-.028,19.587,19.587,0,0,0,3.677.351c.493.049.977.19,1.592.316l2.711-.707.936.65a4.738,4.738,0,0,1,3.5.113,4.978,4.978,0,0,1,4.247.187l2.023-.214,1.042.707c.195-.018.365-.03.533-.05.669-.078,1.446-.414,1.984-.186a2.833,2.833,0,0,0,2.807-.28l3.321.6,1.292-.73h2l1.1-1.04,1.088.368,1.858-1.056h1.972l1.132-1.335,1.489-.087a1.65,1.65,0,0,1,1.6-1.278c1.788-.242,3.311-1.159,5.207-1.771a4.067,4.067,0,0,1,.438-.018,2.813,2.813,0,0,0,2.564-1.384c1.157-1.727,2.441-2.088,4.43-1.378a10.536,10.536,0,0,1,2.363,1.157q3.564-.354,7.127-.708a7.489,7.489,0,0,1,1.023-.079,33.013,33.013,0,0,0,8.253-1.122,14.986,14.986,0,0,0,5.219-2h2.939a7.6,7.6,0,0,1,2.166,2.421c.494,1.08-.293,1.978-.248,2.982h-.811l.176,1-.726-.158c-.65.151-.631.721-.739,1.211a.957.957,0,0,0-.306-.1c-.21.01-.526-.022-.612.1-.633.88-2.091.543-2.54,1.736a.136.136,0,0,1-.083.031,7.8,7.8,0,0,0-1.3-.178c-.259.007-.511.227-.83.383-.046.352-.1.736-.159,1.21l-.737-1.059-1.412.451-.589,1.606-.664-.854a1.732,1.732,0,0,0-1.726,1.25l-.463-.6h-1.4l-.293.536c-.377-.429-.574-1.161-1.473-.818l-.243,1.348-.757-1.419-.686-.056-.446,1.488-.685-1.19-.963.777-.173,1.467-.462-.768c-.942.057-.721.834-.989,1.277-.7-.6-1.26-.044-1.948.246,1.947.414,3.825.737,5.659,1.226a18.534,18.534,0,0,0,6.078.127c.51-.032,1.018-.145,1.526-.145a32.165,32.165,0,0,0,5.237-.609,6.149,6.149,0,0,1,4.154.441,1.963,1.963,0,0,1-1.312,2.583c-.994.411-1.992.826-3.015,1.153a66.3,66.3,0,0,1-11.4,2.642c-2.245.3-4.481.669-6.646,1a45.941,45.941,0,0,1-6.107,6.944l1.143,1.617c.452.022.848.071,1.242.056a17.451,17.451,0,0,1,5.061.589,25.077,25.077,0,0,0,3.754.4l.879,1.444-1.731-.33-.969.42a1.515,1.515,0,0,0,.253.389,6.552,6.552,0,0,1,1.605,1.572h-3.865c-.487.961.564,1.408.479,2.287-.521-.179-1.023-.339-1.514-.523a5.822,5.822,0,0,0-5.037-.11l-.526.583c-.209.788.09,1.553-.386,2.409-.942-1.209-.981-2.55-1.521-3.783-.812-.41-1.737-.819-2.6-1.33s-1.685-1.136-2.59-1.755a27.766,27.766,0,0,0-2.7,1.094,18.536,18.536,0,0,1-6.011,1.753c-2.636.4-5.282.736-7.929,1.054-1.469.176-2.951.238-4.423.393a13.919,13.919,0,0,0-1.684.411c.668.888,1.214,1.651,1.8,2.382a5.892,5.892,0,0,0,2.254,1.406c1.951.956,4.013,1.589,6,2.434a2.288,2.288,0,0,1,1.5,1.458l-1.638.257,1.7,2.418a3.684,3.684,0,0,1-2.5-.729h-2.777l1.159,3.148c-1.055.032-1.457-.713-2.036-1.16s-1.186-.892-1.854-1.392l-3.346.618-3.053,3.738c-.243-1.806,1.22-2.961.821-4.424-.9-.783-1.446.267-2.288.44a2.262,2.262,0,0,1,.965-1.758A3.778,3.778,0,0,0-616.011,374.536Z" transform="translate(667.957 -327.634)" fill="#6a9575"/>
    </g>
  </g>
</svg>
