<svg xmlns="http://www.w3.org/2000/svg" width="101" height="100" viewBox="0 0 101 100">
  <g id="Group_211" data-name="Group 211" transform="translate(-1270 -723)">
    <g id="Ellipse_11" data-name="Ellipse 11" transform="translate(1270 723)" fill="none" stroke="#6a9575" stroke-width="3">
      <ellipse cx="50.5" cy="50" rx="50.5" ry="50" stroke="none"/>
      <ellipse cx="50.5" cy="50" rx="49" ry="48.5" fill="none"/>
    </g>
    <g id="Group_13" data-name="Group 13" transform="translate(1277 726.879)">
      <path id="Path_13" data-name="Path 13" d="M-381.9,345.811a81.213,81.213,0,0,0,7.627-8.116c1.087-1.445,1.234-3.253,1.494-4.99a39.814,39.814,0,0,1,.735-4.465,14.8,14.8,0,0,1,4.126-6.8c4.632-4.494,9.645-8.545,14.686-12.563q1.718-1.369,3.447-2.723a5.354,5.354,0,0,1,.954-.672,5.5,5.5,0,0,1,1.063-.274,4.138,4.138,0,0,1-.26,1.158,6.209,6.209,0,0,1-.935,1.119q-6.855,7.428-13.711,14.855c-.4.434-1.189.908-.55,1.56s1.132-.131,1.562-.527q7.48-6.907,14.944-13.831a9.715,9.715,0,0,1,1.53-1.1.677.677,0,0,1,.641.027.67.67,0,0,1,.07.641,11.057,11.057,0,0,1-1.2,1.649q-4.253,4.646-8.545,9.257c-1.724,1.864-3.464,3.714-5.169,5.6-.391.432-1.206.913-.6,1.566.638.683,1.13-.126,1.558-.522q7.37-6.81,14.721-13.64a11.593,11.593,0,0,1,1.615-1.242c.2-.127.534-.037.808-.045,0,.27.106.607-.017.8a12.988,12.988,0,0,1-1.327,1.736q-6.7,7.276-13.416,14.529c-.2.215-.473.4-.573.657a1.405,1.405,0,0,0-.107,1.009c.233.418.671.287,1,0s.655-.586.977-.885q7.084-6.579,14.174-13.153a18.676,18.676,0,0,1,1.967-1.5.538.538,0,0,1,.515.041.549.549,0,0,1,.082.511,7.01,7.01,0,0,1-.75,1.25c-4.9,6.207-9.748,12.46-15.218,18.192a15.218,15.218,0,0,1-7.549,4.527,38.939,38.939,0,0,1-4.624.7,9.488,9.488,0,0,0-6.089,2.846c-1.978,2.084-3.973,4.151-6.081,6.351,2.246,1.844,4.518,3.841,6.926,5.659,4.4,3.324,8.878,6.545,13.327,9.8a16.637,16.637,0,0,1,4.955,5.111,6.733,6.733,0,0,1,1.035,4.473,5.754,5.754,0,0,1-7.679,4.6,11.045,11.045,0,0,1-5.351-3.932c-2.171-2.823-4.184-5.767-6.341-8.6-3.044-4-6.155-7.948-9.247-11.911-.388-.5-.833-.949-1.35-1.532-.384.387-.723.709-1.04,1.05-5.29,5.711-9.763,12.058-14.306,18.351-1.171,1.622-2.321,3.268-3.617,4.787a10.458,10.458,0,0,1-6.067,3.83,5.745,5.745,0,0,1-6.606-6.756,9.189,9.189,0,0,1,2.56-4.689,35.227,35.227,0,0,1,3.534-3.059c5.936-4.528,11.914-9,17.845-13.536,1.238-.946,2.335-2.074,3.519-3.094.489-.422.66-.749.1-1.289q-4.151-4.029-8.245-8.117a5.71,5.71,0,0,0-5.434-1.407,14.454,14.454,0,0,1-12.621-3.637c-5.725-4.99-9.92-10.992-11.484-18.578a15.3,15.3,0,0,1-.2-6.532c.489-2.171,1.308-2.916,3.53-3.294a18.178,18.178,0,0,1,8.094.728A34.165,34.165,0,0,1-395.591,319.1a14.633,14.633,0,0,1,3.381,12.568,5.8,5.8,0,0,0,1.645,5.485c2.679,2.706,5.342,5.428,8.016,8.139A7.537,7.537,0,0,0-381.9,345.811Z" transform="translate(424.364 -305.204)" fill="#6a9575"/>
    </g>
  </g>
</svg>
