<svg xmlns="http://www.w3.org/2000/svg" width="103.641" height="100" viewBox="0 0 103.641 100">
  <g id="Group_210" data-name="Group 210" transform="translate(-1036.359 -723)">
    <g id="Ellipse_8" data-name="Ellipse 8" transform="translate(1039 723)" fill="none" stroke="#298ea7" stroke-width="3">
      <ellipse cx="50.5" cy="50" rx="50.5" ry="50" stroke="none"/>
      <ellipse cx="50.5" cy="50" rx="49" ry="48.5" fill="none"/>
    </g>
    <g id="Group_12" data-name="Group 12" transform="translate(1036.359 737.871)">
      <path id="Path_12" data-name="Path 12" d="M4562.229,760.117l-12.749-7.1-1.342-8.1,1.342-1.786h4.026l4.42,1.786,33.264-17.839,8.219-6.425,4.311-5.032,4.135-1.677,7.825.663,14.711,2.969,12.245,4.579,5.586,4.923,2.122,3.355-.889,8.614-1.736,6.425-2.181.5-2.9-1.057-34.781,29.02v3.858l-1.007,3.8-3.8.9Z" transform="translate(-4547.066 -713.319)" fill="#fff"/>
      <path id="Path_11" data-name="Path 11" d="M-362.468,254.836c-.263,1.407-.584,2.806-.775,4.223-.246,1.819-.4,3.651-.569,5.481-.23,2.474-1.848,3.595-4.248,2.923a4.863,4.863,0,0,1-1.1-.3,1.57,1.57,0,0,0-2.062.338c-.615.573-1.331,1.041-1.922,1.634-4.7,4.725-10.2,8.515-15.139,12.964s-10.032,8.77-15.083,13.114a2.635,2.635,0,0,0-1.077,2.377,12.309,12.309,0,0,1-.035,2.067c-.305,3.525-3.235,5.447-6.547,4.171-2.637-1.016-5.2-2.222-7.785-3.374q-18.436-8.215-36.865-16.445c-1.465-.654-2.914-1.348-4.4-1.944-3.065-1.229-4.366-3.607-4.695-6.756-.254-2.431-.673-4.844-1.036-7.263-.017-.117-.2-.21-.3-.314v-1.843c.133-.183.277-.36.4-.551,1.536-2.424,3.421-3.121,6.051-2.219a9.624,9.624,0,0,1,1.489.592,2.6,2.6,0,0,0,2.615-.092c2.324-1.167,4.689-2.251,7.024-3.4q13.5-6.628,26.983-13.277a3.4,3.4,0,0,0,1.926-1.857,5.263,5.263,0,0,1,2.982-3.021,1.938,1.938,0,0,0,1.252-1.719,5.379,5.379,0,0,1,2.858-3.941,16.9,16.9,0,0,1,8.794-2.264,69.951,69.951,0,0,1,9.125.829,71.515,71.515,0,0,1,21.1,6.024c4.462,2.1,8.649,4.615,11.039,9.232Zm-17.837,17.94c1.509-1.365,2.9-2.554,4.2-3.837a2.988,2.988,0,0,0,.758-1.563c.2-1.205.264-2.433.34-3.655.12-1.92-.127-2.289-1.928-2.793-3.384-.946-6.776-1.861-10.164-2.792q-14.137-3.884-28.277-7.763c-2.132-.581-4.293-1.055-6.44-1.579q-3.01,1.4-6.017,2.814c-.113.053-.194.175-.359.33.546.21,1.03.433,1.535.583q13.069,3.894,26.142,7.771c6,1.779,12.018,3.528,18.019,5.319,1.983.592,2.31,1.195,2.2,3.382C-380.353,270.182-380.305,271.376-380.305,272.776Zm3.335-13.739a8.134,8.134,0,0,0,2.182-.817,14.824,14.824,0,0,0,2.889-2.605c1.985-2.354,1.4-4.086-1.569-4.785-4.24-1-8.54-1.785-12.723-2.982-3.343-.956-5.852.344-8.2,2.306-2.374,1.987-1.313,4.205,1.013,4.753,4.909,1.158,9.751,2.6,14.626,3.907A15.558,15.558,0,0,0-376.971,259.037Zm-33.36-16.8c-2.482-.1-4.507,1.067-6.375,2.388-1.706,1.207-1.4,3.107.47,4.012a4.949,4.949,0,0,0,.877.265c3.913,1.058,7.814,2.159,11.742,3.157,2.752.7,6.65-1.029,8.134-3.477.831-1.37.6-2.253-.816-2.981a5.037,5.037,0,0,0-1.078-.382c-3.041-.761-6.079-1.532-9.129-2.255C-407.767,242.664-409.055,242.475-410.331,242.236Zm2.6,59.891a2.816,2.816,0,0,0,1.521-2.855c.036-3.217.105-6.436.249-9.65.122-2.746-.651-4.066-3.274-5.1-3.7-1.451-7.412-2.872-11.118-4.309q-13.789-5.348-27.577-10.7-5.879-2.282-11.752-4.575a3.439,3.439,0,0,0-3.626.192c.948.334,1.712.58,2.46.871q21.047,8.2,42.09,16.409c2.848,1.111,5.7,2.209,8.545,3.328a3.571,3.571,0,0,1,2.6,3.431C-407.619,293.452-407.691,297.729-407.734,302.127Zm30.9-42.234c2.473,1.126,2.674,1.5,2.557,3.773a19.14,19.14,0,0,0,.04,4.221,40.263,40.263,0,0,1,3.9-3.33c2.754-1.792,3.106-4.519,3.213-7.4.041-1.082-.559-1.63-1.573-1.937-.941-.285-1.573-.423-2.311.6A9.253,9.253,0,0,1-376.832,259.893Zm-30.3-23.725a5.9,5.9,0,0,0,.93.18,70.671,70.671,0,0,1,20.6,2.819,51.672,51.672,0,0,1,15.15,6.39,15.012,15.012,0,0,1,4.531,4.176,4.841,4.841,0,0,1,1,3.44c-.375,2.571-.754,5.142-1.06,7.722-.187,1.579-.242,3.173-.357,4.76a3.594,3.594,0,0,0,.948-2.087c.472-3.64.986-7.279,1.3-10.934a5.422,5.422,0,0,0-.81-3.021,9.53,9.53,0,0,0-2.563-2.892,51.581,51.581,0,0,0-6.825-4.191,71.331,71.331,0,0,0-18.361-5.609A51.148,51.148,0,0,0-407.131,236.168Zm11,18.658a4.43,4.43,0,0,1-.157-3.894l-4.89,2.45ZM-420,248.261l2.153.538C-418.391,247.767-418.82,247.02-420,248.261Z" transform="translate(466.109 -234.145)" fill="#298ea7"/>
    </g>
  </g>
</svg>
