<svg xmlns="http://www.w3.org/2000/svg" width="151.929" height="115.694" viewBox="0 0 151.929 115.694">
  <g id="Group_209" data-name="Group 209" transform="translate(-796.059 -707.306)">
    <g id="Ellipse_9" data-name="Ellipse 9" transform="translate(809 723)" fill="none" stroke="#6a9575" stroke-width="3">
      <ellipse cx="50.5" cy="50" rx="50.5" ry="50" stroke="none"/>
      <ellipse cx="50.5" cy="50" rx="49" ry="48.5" fill="none"/>
    </g>
    <path id="Path_10" data-name="Path 10" d="M51.243,112.038c-.847-1.778-1.736-3.541-2.487-5.36-1.448-3.509-2.748-7.085-2.57-10.961.09-1.959.45-3.906.688-5.859a30.29,30.29,0,0,0,.262-7.923c-.493-3.5-2.156-6.137-5.662-7.258a41.807,41.807,0,0,0-5.042-1.256c-1.692-.316-3.417-.449-5.291-.682-.131-4.124-.324-8.2-.378-12.272-.117-8.731-.144-17.464-.245-26.2-.041-3.49-.173-6.979-.278-10.469a7.333,7.333,0,0,1,1.5-4.89,10.389,10.389,0,0,0,.937-1.95c.515.255,1.172.822,1.842.019A1.635,1.635,0,0,0,34.44,14.9c-.855-.863-1.407.114-2.211.559-.14-1.416-.261-2.651-.4-4.01,1.324.917,1.879,1.061,2.137.484a3.16,3.16,0,0,0,.2-1.9c-.16-.674-.865-.642-2.43.032-.157-1.352-.31-2.667-.489-4.2.823.529,1.419,1.461,2.206.345A1.449,1.449,0,0,0,33.4,4.165c-.854-1.152-1.363.083-2.117.353a28.68,28.68,0,0,1-.461-2.957A1.393,1.393,0,0,0,29.45.059a41.554,41.554,0,0,0-4.774.019A1.438,1.438,0,0,0,23.265,1.56c-.074.969-.3,1.926-.463,2.922-1.376-.87-1.5-.893-1.964-.45a1.439,1.439,0,0,0-.426,1.834c.379.751.849.878,2.27.558-.054.61-.1,1.2-.158,1.786s-.116,1.172-.177,1.8c-1.611-.619-1.982-.638-2.35-.165a1.817,1.817,0,0,0,.123,2.108c.831.875,1.359-.073,2.1-.681-.125,1.573-.224,2.807-.331,4.15-1.293-.88-1.682-.984-2.1-.644a1.671,1.671,0,0,0-.3,2.074,1.168,1.168,0,0,0,1.9.112,7.019,7.019,0,0,0,.781,1.645,7.64,7.64,0,0,1,1.707,5.506c-.1,3.338-.205,6.676-.266,10.015-.079,4.4-.1,8.8-.177,13.2-.089,5.314-.227,10.627-.3,15.941-.044,3.1-.008,6.21-.008,9.592-.958.051-1.551.07-2.142.117a30.45,30.45,0,0,0-8.64,1.78,7.374,7.374,0,0,0-4.761,4.85,16.055,16.055,0,0,0-.709,5.116c.129,2.865.749,5.706.919,8.572a31.94,31.94,0,0,1-.269,6.324A35.129,35.129,0,0,1,3.532,110.67,29.006,29.006,0,0,0,.183,127.563c.691,5.956,3.421,10.589,9.276,12.964a39.742,39.742,0,0,0,13.064,2.652c3.032.154,6.083.138,9.116,0a41.73,41.73,0,0,0,12.22-2.313c6.077-2.17,9.246-6.737,10.041-12.9A28.153,28.153,0,0,0,51.243,112.038Zm-17.871,2.956H20.757v-3.452H33.372Zm-6.243-13.283a7.821,7.821,0,0,1-7.858-7.725,7.716,7.716,0,0,1,7.715-7.8c4.7-.234,7.948,4.1,7.86,7.656A7.833,7.833,0,0,1,27.129,101.711Z" transform="translate(922.577 707.306) rotate(62)" fill="#6a9575"/>
  </g>
</svg>
