<svg xmlns="http://www.w3.org/2000/svg" width="101" height="100" viewBox="0 0 101 100">
  <g id="Group_212" data-name="Group 212" transform="translate(-1501 -723)">
    <g id="Ellipse_10" data-name="Ellipse 10" transform="translate(1501 723)" fill="none" stroke="#298ea7" stroke-width="3">
      <ellipse cx="50.5" cy="50" rx="50.5" ry="50" stroke="none"/>
      <ellipse cx="50.5" cy="50" rx="49" ry="48.5" fill="none"/>
    </g>
    <path id="Path_14" data-name="Path 14" d="M-453.061,278.361h16.49a5.128,5.128,0,0,1,.051.519q0,13.242,0,26.483a3.46,3.46,0,0,1-3.533,3.485q-6.5-.008-13,0-20.29,0-40.581,0a3.488,3.488,0,0,1-3.04-1.521,3.434,3.434,0,0,1-.6-1.788c-.01-.159,0-.319,0-.479q0-12.968,0-25.936v-.675c.493-.13,15.555-.171,16.512-.045a16.617,16.617,0,0,0-2.363,13.2,16.186,16.186,0,0,0,5.721,9.076,16.639,16.639,0,0,0,20.35.527,16.379,16.379,0,0,0,5.345-6.543,16.39,16.39,0,0,0,1.462-8.309A17.16,17.16,0,0,0-453.061,278.361Zm-42.567-2.581h16.419a1.305,1.305,0,0,0,1-.3,16.251,16.251,0,0,1,9.237-4.306,16.638,16.638,0,0,1,5.634.246,16.512,16.512,0,0,1,7.762,4.068.891.891,0,0,0,.793.293,3,3,0,0,1,.478,0q8.483,0,16.966,0c.263,0,.525-.021.819-.034v-.481q0-2.737,0-5.473a3.482,3.482,0,0,0-3.549-3.535c-1.869.051-3.74.012-5.61.01-.22,0-.439-.018-.71-.031v-2.688c-.5,0-.954,0-1.405,0-.469,0-.938.013-1.465.021v2.671c-.169.011-.28.025-.39.025-2.851,0-5.7-.008-8.551.012a.7.7,0,0,1-.723-.47c-.645-1.3-1.321-2.594-1.965-3.9a.644.644,0,0,0-.669-.422q-5.336.02-10.672,0a.684.684,0,0,0-.71.473c-.632,1.285-1.306,2.55-1.933,3.838a.744.744,0,0,1-.786.482c-2.212-.018-4.424-.008-6.636-.011-.152,0-.3-.031-.523-.055v-1.683H-489.3v1.74c-1.493,0-2.905-.005-4.318,0a4.424,4.424,0,0,0-1.016.085,3.429,3.429,0,0,0-2.645,3.387c-.011,1.551,0,3.1,0,4.652v1.386Zm28.753-.318a12.3,12.3,0,0,0-12.285,12.152,12.332,12.332,0,0,0,12.2,12.373,12.244,12.244,0,0,0,12.3-12.25A12.207,12.207,0,0,0-466.874,275.463Z" transform="translate(2018.287 489.52)" fill="#298ea7"/>
  </g>
</svg>
