<svg xmlns="http://www.w3.org/2000/svg" width="101" height="115.487" viewBox="0 0 101 115.487">
  <g id="Group_208" data-name="Group 208" transform="translate(-578 -707.513)">
    <g id="Ellipse_7" data-name="Ellipse 7" transform="translate(578 723)" fill="none" stroke="#298ea7" stroke-width="3">
      <ellipse cx="50.5" cy="50" rx="50.5" ry="50" stroke="none"/>
      <ellipse cx="50.5" cy="50" rx="49" ry="48.5" fill="none"/>
    </g>
    <g id="Group_11" data-name="Group 11" transform="translate(597 707.513)">
      <path id="Path_8" data-name="Path 8" d="M-392.053,429.194c-.765.037-.76.541-.808,1.1-.159,1.85-.171,1.893-1.884,1.9q-9.886.028-19.773,0c-1.828-.005-1.841-.049-1.847-1.847,0-.553.07-1.083-.708-1.144-.794-.062-1.34.139-1.349,1.073-.008.829-.055,3.029-.085,3.858h27.874c-.1-.9-.158-3.179-.3-4.074A.953.953,0,0,0-392.053,429.194Z" transform="translate(435.365 -328.492)" fill="#298ea7"/>
      <path id="Path_9" data-name="Path 9" d="M-393.8,278.168c0-.851,0-1.6-.993-2.076-.4-.191-.588-.987-.708-1.544-.2-.94.049-2.248-.5-2.768-.564-.54-1.846-.342-2.817-.441-1.555-.157-1.757-.349-1.82-1.99-.041-1.064-.026-2.131-.036-3.2a.884.884,0,0,0-.976-.99c-.381-.007-.761-.009-1.141-.028-1.969-.1-1.977-.2-2.079-2.107a32.566,32.566,0,0,0-.667-6.542,19.03,19.03,0,0,0-11.38-13.129,2.289,2.289,0,0,1-1.706-2.5c.1-2.736.007-5.479.033-8.218.016-1.622.051-3.244.088-4.866l7-11.442v-7.51h-26.463v7.51l7.22,11.805c.037,4.469.073,8.938.135,13.407.015,1.083-.68,1.384-1.486,1.716a19.4,19.4,0,0,0-9.952,8.991,20.286,20.286,0,0,0-2.34,10.554c.079,2.16-.034,2.325-2.043,2.3-2.52-.025-2.106.551-2.129,2.184,0,.152,0,.3,0,.457-.04,2.895.632,3.7-3.437,3.652-1.506-.02-1.6.185-1.673,1.779-.015.3,0,.609,0,.913,0,.934-.07,1.779-1.1,2.291a1.715,1.715,0,0,0-.6,1.321c-.039,4.794-.016,9.588-.02,14.382,0,.848.252,1.551,1.166,1.7,1.388.221,1.628,1.133,1.615,2.316-.024,2.283-.04,4.568.014,6.85.032,1.362.445,1.772,1.782,1.825,1.52.061,3.045.046,4.566.012,1.786-.04,2.094-.345,2.12-2.178.031-2.128-.022-4.257-.011-6.385.008-1.64.591-2.4,1.767-2.383,1.106.015,1.593.649,1.629,2.242s.017,3.2.019,4.794c0,1.979-.048,3.96.012,5.936.038,1.276.394,1.573,1.662,1.681.453.039.913.013,1.369.013q13.015,0,26.03,0c3.177,0,3.179-.008,3.185-3.175.005-3.2-.032-6.395.021-9.591.026-1.532.793-2.136,2.144-1.889,1.031.189,1.37.673,1.347,2-.037,2.129-.125,4.259-.132,6.388-.008,2.286.236,2.515,2.447,2.545,1.141.016,2.283.014,3.425,0,2.387-.022,2.605-.232,2.628-2.611.021-2.206.011-4.413.022-6.619,0-.817.209-1.624,1.14-1.707,1.475-.132,1.642-1.039,1.636-2.22C-393.815,287.15-393.8,282.659-393.8,278.168Zm-52.307,23.106c-.1,1.232-1.02,1.809-2.445,1.724-1.348-.08-1.924-.6-2-1.931-.058-.98-.011-1.965-.011-2.948h.011c0-.908,0-1.815,0-2.722a1.439,1.439,0,0,1,1.327-1.548c2.221-.443,3.179.187,3.291,2.455A37.418,37.418,0,0,1-446.11,301.274Zm2.511-15.328a4.647,4.647,0,0,1-4.573,3.835,4.649,4.649,0,0,1-4.649-4.649,4.649,4.649,0,0,1,4.649-4.649,4.648,4.648,0,0,1,4.1,2.459,4.293,4.293,0,0,1,.567,2.046A4.329,4.329,0,0,1-443.6,285.946Zm7.452,19.624a.927.927,0,0,1-.924.924h0a.927.927,0,0,1-.924-.924v-9.685a.927.927,0,0,1,.924-.924h0a.927.927,0,0,1,.924.924Zm3.1,0a.926.926,0,0,1-.923.924.927.927,0,0,1-.924-.924v-9.685a.927.927,0,0,1,.924-.924.926.926,0,0,1,.923.924Zm8.426-72.461a4.989,4.989,0,0,1,4.874,4.788,4.932,4.932,0,0,1-4.719,4.9,4.91,4.91,0,0,1-4.994-4.862A4.986,4.986,0,0,1-424.622,233.109Zm-5.326,72.461a.927.927,0,0,1-.924.924.926.926,0,0,1-.923-.924v-9.685a.926.926,0,0,1,.923-.924.927.927,0,0,1,.924.924Zm3.1,0a.927.927,0,0,1-.924.924.927.927,0,0,1-.924-.924v-9.685a.927.927,0,0,1,.924-.924.927.927,0,0,1,.924.924Zm3.1,0a.926.926,0,0,1-.923.924.927.927,0,0,1-.924-.924v-9.685a.927.927,0,0,1,.924-.924.926.926,0,0,1,.923.924Zm3.1,0a.927.927,0,0,1-.924.924.927.927,0,0,1-.924-.924v-9.685a.927.927,0,0,1,.924-.924.927.927,0,0,1,.924.924Zm-3.86-37.808a6.378,6.378,0,0,1-6.3-6.216,6.213,6.213,0,0,1,6.109-6.114,6.226,6.226,0,0,1,6.311,6.156A6.375,6.375,0,0,1-424.51,267.762Zm6.959,37.808a.927.927,0,0,1-.924.924.927.927,0,0,1-.924-.924v-9.685a.927.927,0,0,1,.924-.924.927.927,0,0,1,.924.924Zm3.1,0a.927.927,0,0,1-.924.924.926.926,0,0,1-.923-.924v-9.685a.926.926,0,0,1,.923-.924.927.927,0,0,1,.924.924Zm3.1,0a.927.927,0,0,1-.924.924.927.927,0,0,1-.924-.924v-9.685a.927.927,0,0,1,.924-.924.927.927,0,0,1,.924.924Zm12.709-4.511c-.1,1.345-.676,1.866-2.016,1.944-1.414.082-2.346-.506-2.419-1.779a36.148,36.148,0,0,1-.008-5.876c.164-1.529.817-1.77,2.663-1.621,1.361.11,1.688.484,1.786,2.094.027.455.011.913.012,1.37,0,.38,0,.761,0,1.141h-.006C-398.632,299.241-398.58,300.154-398.644,301.06Zm-2.815-11.279a4.649,4.649,0,0,1-4.649-4.649,4.649,4.649,0,0,1,4.649-4.649,4.649,4.649,0,0,1,4.649,4.649A4.649,4.649,0,0,1-401.458,289.781Z" transform="translate(455.399 -208.826)" fill="#298ea7"/>
    </g>
  </g>
</svg>
