<svg xmlns="http://www.w3.org/2000/svg" width="26" height="26" viewBox="0 0 26 26">
  <path id="Subtraction_2" data-name="Subtraction 2" d="M-3500,26a12.914,12.914,0,0,1-9.192-3.808A12.916,12.916,0,0,1-3513,13a12.914,12.914,0,0,1,3.808-9.192A12.914,12.914,0,0,1-3500,0a12.916,12.916,0,0,1,9.193,3.808A12.915,12.915,0,0,1-3487,13a12.916,12.916,0,0,1-3.808,9.193A12.916,12.916,0,0,1-3500,26Zm.189-21c-1.458,0-2.753.022-3.378.057a4.84,4.84,0,0,0-3.431,1.319,4.84,4.84,0,0,0-1.323,3.431c-.077,1.358-.077,5.4,0,6.756a4.818,4.818,0,0,0,1.323,3.431,4.855,4.855,0,0,0,3.431,1.323c.635.036,1.93.058,3.378.058s2.743-.022,3.379-.058A4.813,4.813,0,0,0-3493,19.994a4.848,4.848,0,0,0,1.323-3.431c.077-1.357.077-5.4,0-6.753A4.818,4.818,0,0,0-3493,6.38a4.851,4.851,0,0,0-3.431-1.323C-3497.058,5.022-3498.352,5-3499.811,5Zm1.453,14.909c-.308,0-.6,0-.867-.006-.218,0-.415,0-.585,0s-.359,0-.57,0c-.259,0-.548.005-.849.005a11.727,11.727,0,0,1-3.407-.338,2.769,2.769,0,0,1-1.556-1.556,14.75,14.75,0,0,1-.333-4.243c0-.217,0-.414,0-.584,0-.152,0-.326,0-.516v-.056a14.909,14.909,0,0,1,.333-4.254,2.769,2.769,0,0,1,1.556-1.557,11.518,11.518,0,0,1,3.375-.338c.309,0,.605,0,.867.006.217,0,.415,0,.584,0s.359,0,.572,0c.258,0,.548-.005.849-.005a11.731,11.731,0,0,1,3.407.338,2.769,2.769,0,0,1,1.556,1.557,14.744,14.744,0,0,1,.333,4.242c0,.217,0,.415,0,.585s0,.367,0,.584a14.736,14.736,0,0,1-.333,4.243,2.77,2.77,0,0,1-1.556,1.556A11.521,11.521,0,0,1-3498.357,19.909Zm-1.452-10.92a4.2,4.2,0,0,0-4.2,4.2,4.2,4.2,0,0,0,4.2,4.2,4.2,4.2,0,0,0,4.2-4.2A4.2,4.2,0,0,0-3499.809,8.989Zm4.37-1.151a.98.98,0,0,0-.979.979.98.98,0,0,0,.979.979.98.98,0,0,0,.979-.979A.98.98,0,0,0-3495.439,7.838Zm-4.37,8.078a2.732,2.732,0,0,1-2.729-2.729,2.732,2.732,0,0,1,2.729-2.73,2.733,2.733,0,0,1,2.73,2.73A2.732,2.732,0,0,1-3499.809,15.917Z" transform="translate(3513)" fill="#fff"/>
</svg>
