<svg xmlns="http://www.w3.org/2000/svg" width="25.959" height="25.959" viewBox="0 0 25.959 25.959">
  <path id="Subtraction_1" data-name="Subtraction 1" d="M12.979,25.959A12.98,12.98,0,0,1,3.8,3.8,12.98,12.98,0,0,1,22.157,22.157,12.9,12.9,0,0,1,12.979,25.959ZM5.594,18.619h0a9.736,9.736,0,0,0,5.278,1.542,9.686,9.686,0,0,0,9.781-9.781c0-.147,0-.3-.011-.447a7.355,7.355,0,0,0,1.724-1.777,6.89,6.89,0,0,1-1.98.532A3.424,3.424,0,0,0,21.9,6.795a6.8,6.8,0,0,1-2.181.83,3.441,3.441,0,0,0-5.95,2.352,3.876,3.876,0,0,0,.085.788,9.8,9.8,0,0,1-7.088-3.6,3.443,3.443,0,0,0,1.065,4.6,3.471,3.471,0,0,1-1.554-.436v.042a3.453,3.453,0,0,0,2.756,3.374,3.623,3.623,0,0,1-.9.117,4.289,4.289,0,0,1-.649-.053,3.446,3.446,0,0,0,3.214,2.384,6.855,6.855,0,0,1-4.268,1.469A7,7,0,0,1,5.594,18.619Z" fill="#fff"/>
</svg>
